<svg id="Icon" xmlns="http://www.w3.org/2000/svg" width="20.7" height="19.8" viewBox="0 0 20.7 19.8">
  <path id="Path_6" data-name="Path 6" d="M150.007,220.35h13.05a.675.675,0,1,0,0-1.35h-13.05a.675.675,0,0,0,0,1.35Zm0,0" transform="translate(-149.332 -209.775)" fill="#868daa"/>
  <path id="Path_7" data-name="Path 7" d="M150.016,142.2a.67.67,0,0,0,.477-.2l3.6-3.6a.675.675,0,0,0,0-.955l-3.6-3.6a.675.675,0,0,0-.955.955l3.123,3.123-3.123,3.123a.675.675,0,0,0,.478,1.152Zm0,0" transform="translate(-139.891 -128.028)" fill="#868daa"/>
  <path id="Path_8" data-name="Path 8" d="M9.261,20.132A9.9,9.9,0,1,0,.047,6.611.675.675,0,1,0,1.3,7.1a8.55,8.55,0,1,1,0,6.256.675.675,0,1,0-1.256.494,9.85,9.85,0,0,0,9.214,6.278Zm0,0" transform="translate(1.539 -0.332)" fill="#868daa"/>
</svg>
