<svg xmlns="http://www.w3.org/2000/svg" width="17" height="17" viewBox="0 0 17 17">
  <g id="settings" transform="translate(-0.5 -0.5)">
    <circle id="Ellipse_295" data-name="Ellipse 295" cx="2.182" cy="2.182" r="2.182" transform="translate(6.818 6.818)" stroke-width="1" stroke="#868daa" stroke-linecap="round" stroke-linejoin="round" fill="none"/>
    <path id="Path_2116" data-name="Path 2116" d="M14.382,11.182a1.2,1.2,0,0,0,.24,1.324l.044.044a1.455,1.455,0,1,1-2.058,2.058l-.044-.044a1.21,1.21,0,0,0-2.051.858v.124a1.455,1.455,0,1,1-2.909,0V15.48a1.2,1.2,0,0,0-.785-1.1,1.2,1.2,0,0,0-1.324.24l-.044.044a1.455,1.455,0,1,1-2.058-2.058l.044-.044a1.21,1.21,0,0,0-.858-2.051H2.455a1.455,1.455,0,0,1,0-2.909H2.52a1.2,1.2,0,0,0,1.1-.785,1.2,1.2,0,0,0-.24-1.324l-.044-.044A1.455,1.455,0,1,1,5.393,3.393l.044.044a1.2,1.2,0,0,0,1.324.24h.058a1.2,1.2,0,0,0,.727-1.1V2.455a1.455,1.455,0,0,1,2.909,0V2.52a1.21,1.21,0,0,0,2.051.858l.044-.044a1.455,1.455,0,1,1,2.058,2.058l-.044.044a1.2,1.2,0,0,0-.24,1.324v.058a1.2,1.2,0,0,0,1.1.727h.124a1.455,1.455,0,1,1,0,2.909H15.48A1.2,1.2,0,0,0,14.382,11.182Z" fill="none" stroke="#868daa" stroke-linecap="round" stroke-linejoin="round" stroke-width="1"/>
  </g>
</svg>
